<svg xmlns="http://www.w3.org/2000/svg" viewBox="0 0 968.46 968.52"><defs><style>.cls-1{fill:#e31f52;}.cls-2{fill:#b50533;}.cls-3{fill:#e6e6e5;}.cls-4{fill:#00a5a2;}.cls-5{fill:#3f4d50;}.cls-6{fill:#2f393b;}</style></defs><g id="Layer_2" data-name="Layer 2"><g id="Layer_1-2" data-name="Layer 1"><path class="cls-1" d="M968.46,484.27c0,267.44-216.75,484.25-484.23,484.25S0,751.71,0,484.27,216.82,0,484.23,0,968.46,216.82,968.46,484.27Z"/><path class="cls-2" d="M66.18,728.72c-1.31-2.24-2.6-4.48-3.88-6.74C63.58,724.24,64.87,726.48,66.18,728.72Z"/><path class="cls-2" d="M59.17,716.39c-.8-1.46-1.58-2.94-2.36-4.41C57.59,713.45,58.37,714.93,59.17,716.39Z"/><path class="cls-2" d="M99.08,777.75c-1.26-1.64-2.51-3.28-3.75-5C96.57,774.47,97.82,776.11,99.08,777.75Z"/><path class="cls-2" d="M93.07,769.7q-3.34-4.58-6.58-9.22Q89.73,765.13,93.07,769.7Z"/><path class="cls-2" d="M83.8,756.6c-1.07-1.57-2.12-3.16-3.18-4.74C81.68,753.44,82.73,755,83.8,756.6Z"/><path class="cls-2" d="M77.92,747.75c-1-1.57-2-3.14-3-4.71C75.9,744.61,76.9,746.18,77.92,747.75Z"/><path class="cls-2" d="M72.17,738.67c-1-1.53-1.9-3.06-2.83-4.6C70.27,735.61,71.22,737.14,72.17,738.67Z"/><path class="cls-2" d="M54.13,706.9c-.77-1.49-1.54-3-2.29-4.48C52.59,703.92,53.36,705.41,54.13,706.9Z"/><path class="cls-2" d="M26.35,642.16c-.35-1-.72-2.07-1.08-3.1C25.63,640.09,26,641.12,26.35,642.16Z"/><path class="cls-2" d="M30.39,653.4c-.52-1.37-1-2.74-1.53-4.12C29.36,650.66,29.87,652,30.39,653.4Z"/><path class="cls-2" d="M34.37,663.73c-.57-1.41-1.12-2.83-1.67-4.25C33.25,660.9,33.8,662.32,34.37,663.73Z"/><path class="cls-2" d="M44.09,686.35c-.59-1.27-1.18-2.53-1.75-3.8C42.91,683.82,43.5,685.08,44.09,686.35Z"/><path class="cls-2" d="M49.21,697.13q-1.07-2.14-2.1-4.3Q48.15,695,49.21,697.13Z"/><path class="cls-2" d="M38.5,673.77c-.56-1.31-1.1-2.64-1.65-4C37.4,671.13,37.94,672.46,38.5,673.77Z"/><path class="cls-2" d="M249,907.61q-15.8-8.79-30.84-18.72Q233.21,898.81,249,907.61Z"/><path class="cls-2" d="M216.88,888c-2.27-1.5-4.52-3-6.76-4.57C212.36,885,214.61,886.54,216.88,888Z"/><path class="cls-2" d="M208.68,882.48q-14.48-10-28.16-21.08Q194.2,872.44,208.68,882.48Z"/><path class="cls-2" d="M257.47,912.21q-3.78-2-7.52-4.08Q253.69,910.2,257.47,912.21Z"/><path class="cls-2" d="M300.44,932.38c-2.73-1.12-5.44-2.26-8.15-3.43C295,930.12,297.71,931.26,300.44,932.38Z"/><path class="cls-2" d="M105.51,786c-1.29-1.63-2.58-3.26-3.86-4.91C102.93,782.75,104.22,784.38,105.51,786Z"/><path class="cls-2" d="M178.94,860.13c-2-1.61-3.94-3.24-5.89-4.87C175,856.89,177,858.52,178.94,860.13Z"/><path class="cls-2" d="M291.87,928.77q-17-7.37-33.28-16Q274.88,921.4,291.87,928.77Z"/><path class="cls-2" d="M129.78,814.14q-7.87-8.46-15.34-17.28Q121.91,805.68,129.78,814.14Z"/><path class="cls-2" d="M136.67,821.4q-2.41-2.49-4.8-5Q134.26,818.91,136.67,821.4Z"/><path class="cls-2" d="M112.14,794.14q-2.06-2.46-4.06-4.95Q110.09,791.68,112.14,794.14Z"/><path class="cls-2" d="M143.94,828.74c-1.68-1.66-3.33-3.32-5-5C140.61,825.42,142.26,827.08,143.94,828.74Z"/><path class="cls-2" d="M171.14,853.64c-1.95-1.65-3.89-3.31-5.81-5C167.25,850.33,169.19,852,171.14,853.64Z"/><path class="cls-2" d="M164.15,847.6q-9.36-8.25-18.29-17Q154.79,839.33,164.15,847.6Z"/><path class="cls-2" d="M9.94,582.33c-.18-.89-.35-1.78-.52-2.67C9.59,580.55,9.76,581.44,9.94,582.33Z"/><path class="cls-2" d="M13,596.11c-.25-1-.51-2.08-.75-3.13C12.5,594,12.76,595.07,13,596.11Z"/><path class="cls-2" d="M6,560.25c-.21-1.33-.42-2.66-.62-4C5.53,557.59,5.74,558.92,6,560.25Z"/><path class="cls-2" d="M7.84,571.41c-.24-1.29-.46-2.58-.68-3.88C7.38,568.83,7.6,570.12,7.84,571.41Z"/><path class="cls-2" d="M15.9,607.69c-.35-1.33-.71-2.67-1.05-4C15.19,605,15.55,606.36,15.9,607.69Z"/><path class="cls-2" d="M18.86,618.48c-.39-1.34-.76-2.69-1.14-4C18.1,615.79,18.47,617.14,18.86,618.48Z"/><path class="cls-2" d="M1.52,522.75c-.1-1.24-.18-2.49-.27-3.74C1.34,520.26,1.42,521.51,1.52,522.75Z"/><path class="cls-2" d="M.26,499.34c0-1.21-.09-2.41-.12-3.62C.17,496.93.22,498.13.26,499.34Z"/><path class="cls-2" d="M22,629c-.35-1.13-.68-2.26-1-3.39C21.33,626.74,21.66,627.87,22,629Z"/><path class="cls-2" d="M4.24,548.45c-.15-1.11-.3-2.22-.44-3.34C3.94,546.23,4.09,547.34,4.24,548.45Z"/><path class="cls-2" d="M2.53,534c-.06-.56-.1-1.13-.16-1.69C2.43,532.88,2.47,533.45,2.53,534Z"/><path class="cls-2" d="M.76,511.29c-.07-1.35-.14-2.7-.2-4.05C.62,508.59.69,509.94.76,511.29Z"/><path class="cls-2" d="M165.33,848.64c-.4-.34-.79-.69-1.18-1C164.54,848,164.93,848.3,165.33,848.64Z"/><path class="cls-2" d="M1.25,519c-.18-2.57-.35-5.14-.49-7.72C.9,513.87,1.07,516.44,1.25,519Z"/><path class="cls-2" d="M145.86,830.62c-.64-.63-1.29-1.25-1.92-1.88C144.57,829.37,145.22,830,145.86,830.62Z"/><path class="cls-2" d="M139,823.74l-2.29-2.34Z"/><path class="cls-2" d="M131.87,816.39l-2.09-2.25Z"/><path class="cls-2" d="M3.8,545.11q-.7-5.54-1.27-11.1Q3.1,539.58,3.8,545.11Z"/><path class="cls-2" d="M2.37,532.32c-.31-3.18-.6-6.37-.85-9.57C1.77,526,2.06,529.14,2.37,532.32Z"/><path class="cls-2" d="M250,908.13l-.94-.52Z"/><path class="cls-2" d="M173.05,855.26l-1.91-1.62Z"/><path class="cls-2" d="M301.54,932.83l-1.1-.45Z"/><path class="cls-2" d="M292.29,929l-.42-.18Z"/><path class="cls-2" d="M258.59,912.8l-1.12-.59Z"/><path class="cls-2" d="M.56,507.24c-.13-2.63-.22-5.26-.3-7.9C.34,502,.43,504.61.56,507.24Z"/><path class="cls-2" d="M180.52,861.4l-1.58-1.27Z"/><path class="cls-2" d="M.14,495.72C.06,491.91,0,488.1,0,484.27,0,488.1.06,491.91.14,495.72Z"/><path class="cls-2" d="M210.12,883.47l-1.44-1Z"/><path class="cls-2" d="M218.17,888.89l-1.29-.85Z"/><path class="cls-2" d="M25.27,639.06q-1.68-5-3.26-10.06Q23.58,634.06,25.27,639.06Z"/><path class="cls-2" d="M47.11,692.83c-1-2.15-2-4.31-3-6.48C45.08,688.52,46.08,690.68,47.11,692.83Z"/><path class="cls-2" d="M51.84,702.42q-1.34-2.64-2.63-5.29Q50.5,699.79,51.84,702.42Z"/><path class="cls-2" d="M17.72,614.44q-.93-3.36-1.82-6.75Q16.78,611.08,17.72,614.44Z"/><path class="cls-2" d="M56.81,712c-.9-1.68-1.8-3.38-2.68-5.08C55,708.6,55.91,710.3,56.81,712Z"/><path class="cls-2" d="M14.85,603.68c-.63-2.52-1.25-5-1.84-7.57C13.6,598.64,14.22,601.16,14.85,603.68Z"/><path class="cls-2" d="M62.3,722c-1-1.86-2.1-3.72-3.13-5.59C60.2,718.26,61.25,720.12,62.3,722Z"/><path class="cls-2" d="M32.7,659.48q-1.19-3-2.31-6.08Q31.52,656.45,32.7,659.48Z"/><path class="cls-2" d="M42.34,682.55q-2-4.37-3.84-8.78Q40.38,678.18,42.34,682.55Z"/><path class="cls-2" d="M36.85,669.81q-1.26-3-2.48-6.08Q35.59,666.78,36.85,669.81Z"/><path class="cls-2" d="M114.44,796.86c-.77-.91-1.54-1.81-2.3-2.72C112.9,795.05,113.67,796,114.44,796.86Z"/><path class="cls-2" d="M21,625.61c-.72-2.37-1.43-4.74-2.12-7.13C19.55,620.87,20.26,623.24,21,625.61Z"/><path class="cls-2" d="M95.33,772.8c-.76-1-1.51-2.07-2.26-3.1C93.82,770.73,94.57,771.78,95.33,772.8Z"/><path class="cls-2" d="M7.16,567.53c-.42-2.42-.83-4.85-1.21-7.28C6.33,562.68,6.74,565.11,7.16,567.53Z"/><path class="cls-2" d="M28.86,649.28c-.86-2.36-1.69-4.74-2.51-7.12C27.17,644.54,28,646.92,28.86,649.28Z"/><path class="cls-2" d="M101.65,781.1c-.86-1.11-1.72-2.23-2.57-3.35C99.93,778.87,100.79,780,101.65,781.1Z"/><path class="cls-2" d="M108.08,789.19,105.51,786Z"/><path class="cls-2" d="M5.33,556.25q-.57-3.88-1.09-7.8Q4.76,552.36,5.33,556.25Z"/><path class="cls-2" d="M74.9,743q-1.38-2.17-2.73-4.37Q73.52,740.86,74.9,743Z"/><path class="cls-2" d="M69.34,734.07c-1.07-1.77-2.11-3.56-3.16-5.35C67.23,730.51,68.27,732.3,69.34,734.07Z"/><path class="cls-2" d="M12.26,593Q11,587.67,9.94,582.33,11,587.67,12.26,593Z"/><path class="cls-2" d="M9.42,579.66q-.83-4.11-1.58-8.25Q8.59,575.55,9.42,579.66Z"/><path class="cls-2" d="M86.49,760.48q-1.35-1.93-2.69-3.88Q85.14,758.55,86.49,760.48Z"/><path class="cls-2" d="M80.62,751.86c-.9-1.37-1.81-2.74-2.7-4.11C78.81,749.12,79.72,750.49,80.62,751.86Z"/><path class="cls-2" d="M680.65,758.51l-39.5-79.82-18.33-6.1,140.16-99L720.31,552l76-223.08-195-66.09-132.2,74.36L373.3,287.57l-56.18,39.66-26.44-24.79L97.35,281,29.08,318.63A483.34,483.34,0,0,0,0,484.27c0,3.83.06,7.64.14,11.45,0,1.21.08,2.41.12,3.62.08,2.64.17,5.27.3,7.9.06,1.35.13,2.7.2,4.05.14,2.58.31,5.15.49,7.72.09,1.25.17,2.5.27,3.74.25,3.2.54,6.39.85,9.57.06.56.1,1.13.16,1.69q.57,5.57,1.27,11.1c.14,1.12.29,2.23.44,3.34q.52,3.91,1.09,7.8c.2,1.34.41,2.67.62,4,.38,2.43.79,4.86,1.21,7.28.22,1.3.44,2.59.68,3.88q.75,4.14,1.58,8.25c.17.89.34,1.78.52,2.67Q11,587.67,12.26,593c.24,1,.5,2.09.75,3.13.59,2.53,1.21,5,1.84,7.57.34,1.34.7,2.68,1.05,4q.88,3.39,1.82,6.75c.38,1.35.75,2.7,1.14,4,.69,2.39,1.4,4.76,2.12,7.13.35,1.13.68,2.26,1,3.39q1.57,5.06,3.26,10.06c.36,1,.73,2.06,1.08,3.1.82,2.38,1.65,4.76,2.51,7.12.5,1.38,1,2.75,1.53,4.12q1.13,3,2.31,6.08c.55,1.42,1.1,2.84,1.67,4.25q1.22,3,2.48,6.08c.55,1.32,1.09,2.65,1.65,4q1.88,4.41,3.84,8.78c.57,1.27,1.16,2.53,1.75,3.8,1,2.17,2,4.33,3,6.48q1,2.16,2.1,4.3,1.29,2.65,2.63,5.29c.75,1.5,1.52,3,2.29,4.48.88,1.7,1.78,3.4,2.68,5.08.78,1.47,1.56,2.95,2.36,4.41,1,1.87,2.08,3.73,3.13,5.59,1.28,2.26,2.57,4.5,3.88,6.74,1,1.79,2.09,3.58,3.16,5.35.93,1.54,1.88,3.07,2.83,4.6S74,741.59,74.9,743s2,3.14,3,4.71c.89,1.37,1.8,2.74,2.7,4.11,1.06,1.58,2.11,3.17,3.18,4.74q1.33,1.95,2.69,3.88,3.24,4.65,6.58,9.22c.75,1,1.5,2.08,2.26,3.1,1.24,1.67,2.49,3.31,3.75,5,.85,1.12,1.71,2.24,2.57,3.35,1.28,1.65,2.57,3.28,3.86,4.91l2.57,3.18q2,2.49,4.06,4.95c.76.91,1.53,1.81,2.3,2.72q7.47,8.82,15.34,17.28l2.09,2.25q2.38,2.52,4.8,5l2.29,2.34c1.65,1.68,3.3,3.34,5,5,.63.63,1.28,1.25,1.92,1.88q8.92,8.71,18.29,17c.39.35.78.7,1.18,1,1.92,1.69,3.86,3.35,5.81,5l1.91,1.62c1.95,1.63,3.91,3.26,5.89,4.87l1.58,1.27q13.68,11,28.16,21.08l1.44,1c2.24,1.54,4.49,3.07,6.76,4.57l1.29.85q15,9.92,30.84,18.72l.94.52q3.74,2.07,7.52,4.08l1.12.59q16.29,8.6,33.28,16l.42.18c2.71,1.17,5.42,2.31,8.15,3.43l1.1.45C313.12,937.56,680.65,758.51,680.65,758.51Z"/><path class="cls-3" d="M732,492.56c-1,4.51-6,7.26-11,6.13l-158.77-35c-5.1-1.13-8.44-5.7-7.44-10.22l41.74-189.42c1-4.51,5.94-7.26,11-6.14l158.77,35c5.1,1.12,8.44,5.7,7.44,10.21Z"/><path class="cls-4" d="M614.64,509.19c0,5.14-5.87,9.32-13.11,9.32h-225c-7.24,0-13.11-4.18-13.11-9.32V293.45c0-5.14,5.87-9.31,13.11-9.31h225c7.24,0,13.11,4.17,13.11,9.31Z"/><path class="cls-5" d="M809.83,316.74H315.08c-5.16,0-9.35,4.8-9.35,10.75s4.19,10.74,9.35,10.74H809.83c5.16,0,9.34-4.81,9.34-10.74S815,316.74,809.83,316.74Z"/><path class="cls-5" d="M778.64,402.93H339.33c-5.16,0-9.34,4.81-9.34,10.76s4.18,10.74,9.34,10.74H778.64c5.17,0,9.34-4.81,9.34-10.74S783.81,402.93,778.64,402.93Z"/><path class="cls-5" d="M745.7,489.14H358.42c-5.18,0-9.36,4.81-9.36,10.74s4.18,10.74,9.36,10.74H745.7c5.16,0,9.34-4.8,9.34-10.74S750.86,489.14,745.7,489.14Z"/><polygon class="cls-5" points="405.79 331.1 387.24 333.87 412.5 558.03 432.09 562.82 405.79 331.1"/><polygon class="cls-5" points="480.36 332.73 461.7 334.2 475.43 564.86 495.02 560.77 480.36 332.73"/><polygon class="cls-5" points="536.63 329.48 536.58 565.55 554.4 564.86 555.33 329.48 536.63 329.48"/><polygon class="cls-5" points="622.98 328.7 587.63 568.27 607.83 560.08 641.4 332.27 622.98 328.7"/><polygon class="cls-5" points="703.36 328.6 645.23 569.64 666.01 564.86 721.35 334.34 703.36 328.6"/><polygon class="cls-5" points="782.02 324.72 705.19 558.03 723.59 566.92 799.5 332.27 782.02 324.72"/><path class="cls-6" d="M763,542.1H385.89l-76-244.89C308.81,310.32,297,313,285.7,314.6l77.68,248.53c1.93,6.26,7.09,10.44,12.88,10.44H763c7.56,0,13.68-7,13.68-15.74S770.54,542.1,763,542.1Z"/><path class="cls-6" d="M306.43,284.75a25.82,25.82,0,0,0-17.16-6.34H112.44C99,278.41,88,288.24,88,300.36s11,21.95,24.44,21.95H289.27a25.3,25.3,0,0,0,2.94-.26c11.33-1.24,20.18-9.36,21.28-19.6a20.25,20.25,0,0,0,.22-2.09A20.83,20.83,0,0,0,306.43,284.75Z"/><polygon class="cls-6" points="656.95 723 354.82 723 390.89 555.64 409.83 561.04 379.76 700.56 656.95 700.56 656.95 723"/><circle class="cls-3" cx="370.46" cy="713.79" r="54.28" transform="translate(-27.12 14.74) rotate(-2.2)"/><path class="cls-4" d="M411.16,713.79a40.71,40.71,0,1,1-40.7-40.71A40.7,40.7,0,0,1,411.16,713.79Z"/><path class="cls-3" d="M705.64,713.79a54.28,54.28,0,1,1-54.27-54.28A54.28,54.28,0,0,1,705.64,713.79Z"/><path class="cls-4" d="M692.07,713.79a40.71,40.71,0,1,1-40.7-40.71A40.7,40.7,0,0,1,692.07,713.79Z"/></g></g></svg>